<?xml version="1.0" encoding="utf-8"?>
<!-- Generator: Adobe Illustrator 20.0.0, SVG Export Plug-In . SVG Version: 6.00 Build 0)  -->
<svg version="1.1" id="Layer_1" xmlns="http://www.w3.org/2000/svg" xmlns:xlink="http://www.w3.org/1999/xlink" x="0px" y="0px"
	 viewBox="0 0 81.2 17" style="enable-background:new 0 0 81.2 17;" xml:space="preserve">
<style type="text/css">
	.st0{fill:#F27056;}
	.st1{fill:#FFFFFF;}
	.st2{fill:#FDF8F2;}
	.st3{fill:#203140;}
</style>
<g>
	<rect class="st0" width="17" height="17"/>
	<g>
		<path class="st1" d="M9.7,7.4L9.7,7.4L7.4,8v0.1c0.1,0,0.2,0.1,0.2,0.1c0.2,0.1,0.3,0.3,0.3,0.7v2.7c0,0.7-0.2,0.8-0.6,0.9v0.1
			h2.9v-0.1c-0.4-0.1-0.5-0.2-0.5-0.8V7.4z"/>
		<path class="st2" d="M11.2,11.7c0,0.5-0.1,0.7-0.5,0.8v0.1h2.9v-0.1c-0.4-0.1-0.6-0.2-0.6-0.9V8.9c0-0.9-0.6-1.5-1.6-1.5
			c-0.7,0-1.4,0.5-1.8,1v0c0.1-0.1,0.4-0.1,0.5-0.1c0.5,0,1,0.3,1,0.8V11.7z"/>
		<path class="st1" d="M6.6,12.5C6.2,12.4,6,12.3,6,11.6V8h0.8V7.4H6V5.9c0-0.8,0.3-1.3,0.9-1.4V4.4C5.3,4.5,4.2,5.3,4.2,6.6v0.7
			L3.4,8V8h0.7v3.6c0,0.7-0.2,0.8-0.6,0.9v0.1L6.6,12.5L6.6,12.5z"/>
		<path class="st1" d="M7.4,4.6C6.9,4.6,6.6,5,6.6,5.4c0,0.4,0.4,0.8,0.8,0.8c0.4,0,0.8-0.4,0.8-0.8C8.1,5,7.8,4.6,7.4,4.6"/>
	</g>
	<rect x="16.9" y="0" class="st3" width="64.3" height="17"/>
	<g>
		<path class="st1" d="M22,7v1.6h2.7v1H22v2.6H21V6h3.9v1H22z"/>
		<path class="st1" d="M26.6,7h-1V6h1V7z M26.6,12.1h-1V7.8h1V12.1z"/>
		<path class="st1" d="M31.5,12.1h-1V9.9c0-0.3,0-0.6-0.1-0.8c-0.1-0.3-0.3-0.5-0.8-0.5c-0.6,0-0.9,0.5-0.9,1.2v2.3h-1V7.8h1v0.5
			c0.2-0.4,0.7-0.7,1.3-0.7c0.5,0,0.9,0.1,1.2,0.5c0.2,0.3,0.3,0.6,0.3,1.4V12.1z"/>
		<path class="st1" d="M36,11.1c0,0.3,0,0.4,0.3,0.4h0.1v0.7c-0.1,0-0.2,0-0.5,0c-0.4,0-0.7-0.1-0.8-0.4h0c-0.2,0.2-0.5,0.5-1.3,0.5
			c-0.8,0-1.5-0.4-1.5-1.3c0-0.3,0.1-0.6,0.2-0.8c0.3-0.3,0.7-0.5,1.3-0.6l0.9-0.2c0.2,0,0.3-0.1,0.3-0.2V9.1c0-0.4-0.2-0.5-0.8-0.5
			c-0.6,0-0.9,0.2-0.9,0.7l-1-0.1c0-1.1,0.8-1.5,1.9-1.5c1,0,1.7,0.3,1.7,1.3V11.1z M35.1,10.6v-0.5c-0.2,0.1-0.3,0.1-0.6,0.2
			l-0.4,0.1c-0.5,0.1-0.7,0.2-0.7,0.6c0,0.4,0.2,0.6,0.7,0.6C34.7,11.5,35.1,11.2,35.1,10.6z"/>
		<path class="st1" d="M41,12.1h-1V9.9c0-0.3,0-0.6-0.1-0.8c-0.1-0.3-0.3-0.5-0.8-0.5c-0.6,0-0.9,0.5-0.9,1.2v2.3h-1V7.8h1v0.5
			c0.2-0.4,0.7-0.7,1.3-0.7c0.5,0,0.9,0.1,1.2,0.5C40.9,8.5,41,8.9,41,9.7V12.1z"/>
		<path class="st1" d="M44.9,9.4c-0.2-0.5-0.5-0.8-1-0.8c-0.7,0-1.1,0.5-1.1,1.4s0.4,1.4,1.1,1.4c0.6,0,0.9-0.3,1-0.7l0.8,0.4
			c-0.2,0.5-0.8,1.2-1.9,1.2c-1.2,0-2.1-0.8-2.1-2.2s0.9-2.3,2.1-2.3c1,0,1.6,0.5,1.9,1.2L44.9,9.4z"/>
		<path class="st1" d="M47.4,7h-1V6h1V7z M47.4,12.1h-1V7.8h1V12.1z"/>
		<path class="st1" d="M51.9,11.1c0,0.3,0,0.4,0.3,0.4h0.1v0.7c-0.1,0-0.2,0-0.5,0c-0.4,0-0.7-0.1-0.8-0.4h0
			c-0.2,0.2-0.5,0.5-1.3,0.5c-0.8,0-1.5-0.4-1.5-1.3c0-0.3,0.1-0.6,0.2-0.8c0.3-0.3,0.7-0.5,1.3-0.6l0.9-0.2c0.2,0,0.3-0.1,0.3-0.2
			V9.1c0-0.4-0.2-0.5-0.8-0.5c-0.6,0-0.9,0.2-0.9,0.7l-1-0.1c0-1.1,0.8-1.5,1.9-1.5c1,0,1.7,0.3,1.7,1.3V11.1z M50.9,10.6v-0.5
			c-0.2,0.1-0.3,0.1-0.6,0.2l-0.4,0.1c-0.5,0.1-0.7,0.2-0.7,0.6c0,0.4,0.2,0.6,0.7,0.6C50.5,11.5,50.9,11.2,50.9,10.6z"/>
		<path class="st1" d="M54,12.1h-1V6h1V12.1z"/>
		<path class="st1" d="M60.7,9.5c0.1,0.2,0.4,0.6,0.5,0.7c0-0.2,0-1.3,0-2.2V6h1.1v6.1h-1l-2.4-3.7c-0.2-0.3-0.4-0.6-0.4-0.6
			c0,0.3,0,1.2,0,2.3v2h-1.1V6h1L60.7,9.5z"/>
		<path class="st1" d="M67.3,11.1c-0.2,0.3-0.8,1.1-2,1.1c-1.3,0-2.1-0.9-2.1-2.3c0-1.3,0.9-2.2,2.1-2.2c1.4,0,2,0.9,2,2.3
			c0,0.1,0,0.2,0,0.3h-3.1c0.1,0.6,0.4,1.1,1.2,1.1c0.8,0,1.1-0.5,1.3-0.7L67.3,11.1z M64.2,9.5h2.1c0-0.6-0.4-0.9-1-0.9
			C64.7,8.5,64.2,9,64.2,9.5z"/>
		<path class="st1" d="M70.9,10.5c-0.1-0.4-0.3-1-0.3-1.4h0c-0.1,0.4-0.2,1-0.3,1.4l-0.5,1.6h-1l-1.2-4.3h1l0.5,1.9
			c0.1,0.4,0.2,0.8,0.3,1.2h0c0.1-0.4,0.2-0.7,0.3-1.2l0.5-1.9H71l0.5,1.9c0.1,0.5,0.2,0.8,0.3,1.2h0c0.1-0.4,0.1-0.7,0.3-1.2
			l0.5-1.9h1l-1.3,4.3h-1L70.9,10.5z"/>
		<path class="st1" d="M77,9c-0.3-0.3-0.7-0.5-1.2-0.5c-0.4,0-0.7,0.1-0.7,0.4c0,0.3,0.3,0.4,0.9,0.5l0.5,0.1
			c0.6,0.2,1.2,0.4,1.2,1.2c0,1-0.9,1.4-1.9,1.4c-1,0-1.7-0.5-2-0.9l0.7-0.6c0.2,0.3,0.7,0.6,1.3,0.6c0.5,0,0.8-0.2,0.8-0.5
			c0-0.3-0.2-0.4-0.7-0.4l-0.6-0.1c-0.7-0.2-1.3-0.5-1.3-1.3c0-0.9,0.9-1.3,1.7-1.3c0.9,0,1.5,0.4,1.8,0.7L77,9z"/>
	</g>
</g>
</svg>
