<?xml version="1.0" encoding="UTF-8"?>
<svg width="900px" height="200px" viewBox="0 0 900 200" version="1.1" xmlns="http://www.w3.org/2000/svg" xmlns:xlink="http://www.w3.org/1999/xlink">
    <!-- Generator: Sketch 42 (36781) - http://www.bohemiancoding.com/sketch -->
    <title>Moneyish_Logo</title>
    <desc>Created with Sketch.</desc>
    <defs></defs>
    <g id="Page-1" stroke="none" stroke-width="1" fill="none" fill-rule="evenodd">
        <g id="Moneyish_Logo" fill="#FF716C">
            <path d="M153.18,133.8546 L165.59,145.7006 L165.59,146.0766 L102.975,146.0766 L102.975,145.7006 L115.574,133.8546 C117.077,132.3506 117.266,131.7866 117.266,129.3416 L117.266,53.7516 C117.266,50.5556 117.453,46.2306 117.829,42.4696 L75.334,147.5816 L74.958,147.5816 L30.958,50.9316 C29.829,48.4866 28.326,45.2906 27.385,42.6576 L27.385,114.4866 C27.385,117.4956 27.761,117.8716 29.829,120.6916 L48.822,145.7006 L48.822,146.0766 L2,146.0766 L2,145.7006 L20.993,120.6916 C23.061,117.8716 23.437,117.4956 23.437,114.4866 L23.437,40.0256 C23.437,36.8296 23.248,36.4526 21.744,34.5726 L6.326,14.2646 L6.326,13.8886 L51.266,13.8886 L90.565,99.6326 L125.163,13.8886 L165.59,13.8886 L165.59,14.2646 L153.18,27.9916 C151.488,29.6836 151.3,30.0596 151.3,32.6916 L151.3,129.3416 C151.3,131.7866 151.488,132.3506 153.18,133.8546" id="Fill-1"></path>
            <path d="M171.7269,99.4444 C171.7269,67.8544 191.4709,51.4954 221.1799,51.4954 C250.8899,51.4954 270.8209,67.6664 270.8209,99.6324 C270.8209,131.2224 250.8899,147.5814 221.1799,147.5814 C191.4709,147.5814 171.7269,131.4104 171.7269,99.4444 M205.9499,99.4444 C205.9499,135.7344 211.7789,144.1964 221.1799,144.1964 C230.5809,144.1964 236.4109,136.1114 236.4109,99.6324 C236.4109,63.3414 230.5809,55.0684 221.1799,55.0684 C211.7789,55.0684 205.9499,62.9654 205.9499,99.4444" id="Fill-3"></path>
            <path d="M380.8206,132.5382 C380.8206,134.9822 381.0086,135.5472 382.5126,137.0512 L391.9146,145.7012 L391.9146,146.0762 L339.0776,146.0762 L339.0776,145.7012 L348.1026,137.0512 C349.6066,135.5472 349.7956,134.7942 349.7956,132.7262 C349.7956,129.9062 350.3596,104.5212 350.3596,95.4952 C350.3596,78.3842 347.7266,67.1022 336.0686,67.1022 C330.0516,67.1022 325.5386,70.4872 322.1546,75.3762 L322.1546,132.5382 C322.1546,134.9822 322.1546,135.5472 323.8466,137.0512 L333.0596,145.7012 L333.0596,146.0762 L280.4106,146.0762 L280.4106,145.7012 L289.6246,137.0512 C291.3166,135.5472 291.3166,134.9822 291.3166,132.5382 L291.3166,67.4782 C291.3166,65.0342 291.1286,64.4702 289.6246,62.7772 L280.4106,53.3762 L280.4106,53.0002 L322.1546,53.0002 L322.1546,72.9312 C326.8546,59.7692 336.8206,51.4952 352.0516,51.4952 C370.8546,51.4952 381.3846,65.2222 381.3846,91.1712 C381.3846,102.8282 381.0086,117.6832 380.8206,132.5382" id="Fill-5"></path>
            <path d="M431.7757,95.3077 L431.7757,95.6837 C431.7757,120.1277 444.1857,130.0937 458.6647,130.0937 C469.9467,130.0937 481.0407,125.2057 487.2457,112.7947 L487.6227,112.7947 C482.7327,136.4867 468.0667,147.5807 446.0667,147.5807 C422.3747,147.5807 399.9987,133.2907 399.9987,100.1967 C399.9987,65.4097 422.1857,51.4957 447.1947,51.4957 C467.1267,51.4957 488.3747,60.8977 488.3747,91.1707 C488.3747,91.7347 488.3747,93.0517 488.1857,95.3077 L431.7757,95.3077 Z M431.7757,91.9227 L459.4177,91.9227 C459.6047,89.4787 459.6047,87.0347 459.6047,86.2817 C459.6047,61.6497 454.5277,55.0687 446.8187,55.0687 C437.4177,55.0687 432.1517,64.6577 431.7757,91.9227 L431.7757,91.9227 Z" id="Fill-7"></path>
            <path d="M551.5511,142.504 C547.2261,152.658 541.5851,163.94 535.3801,173.718 C527.6701,185.752 520.5261,190.453 509.2431,190.453 C506.4231,190.453 503.4141,189.889 500.4051,188.572 L507.3631,155.667 L507.7381,155.667 L526.3551,174.094 C527.2941,175.034 527.8591,175.598 528.6111,175.598 C529.5511,175.598 530.3031,175.034 531.4311,173.342 C533.8751,169.957 536.6971,164.692 538.5761,160.367 L539.7041,157.359 L504.7311,68.607 C503.7901,66.162 502.8501,64.282 501.9101,62.401 L496.8331,53.376 L496.8331,53 L545.5331,53 L545.5331,53.376 L538.0131,63.718 C537.0721,65.034 536.6971,65.786 537.6361,68.043 L556.6281,120.692 L571.8591,83.65 C573.1751,80.453 573.3631,79.701 571.8591,76.692 L560.3891,53.376 L560.3891,53 L592.5421,53 L592.5421,53.376 L580.3211,74.436 C578.0641,78.196 577.1231,80.453 575.6191,84.214 L551.5511,142.504 Z" id="Fill-9"></path>
            <path d="M676.3709,53.0001 L676.3709,132.5381 C676.3709,134.9821 676.3709,135.5471 678.0629,137.0511 L687.2759,145.7011 L687.2759,146.0771 L634.6269,146.0771 L634.6269,145.7011 L643.8409,137.0511 C645.5329,135.5471 645.5329,134.9821 645.5329,132.5381 L645.5329,67.4791 C645.5329,65.0341 645.3449,64.4701 643.8409,62.7771 L634.6269,53.3761 L634.6269,53.0001 L676.3709,53.0001 Z M645.3449,28.7441 C645.3449,19.7181 652.3029,14.0771 660.3879,14.0771 C668.8499,14.0771 675.6179,19.7181 675.6179,28.7441 C675.6179,37.2051 668.8499,42.6581 660.3879,42.6581 C652.3029,42.6581 645.3449,37.2051 645.3449,28.7441 L645.3449,28.7441 Z" id="Fill-11"></path>
            <path d="M733.9002,113.9229 L721.1142,107.9059 C710.7712,103.0169 702.8742,94.5549 702.8742,81.2049 C702.8742,63.3419 717.5412,51.4959 741.4212,51.4959 C750.6342,51.4959 762.2932,52.8119 774.5152,56.5719 L763.9852,83.8379 L763.6092,83.8379 L748.9422,57.7009 C747.8142,55.8209 747.2512,54.8809 744.6182,54.8809 L741.9852,54.8809 C733.7122,54.8809 726.7542,59.2049 726.7542,68.0429 C726.7542,76.3159 732.9602,80.2649 744.0532,85.1539 L756.0872,90.4189 C767.7462,95.4959 776.9602,101.8889 776.9602,116.3669 C776.9602,136.6749 759.8482,147.5809 734.8392,147.5809 C724.1222,147.5809 710.9602,145.5129 700.2422,141.7519 L710.5842,112.6069 L710.9602,112.6069 L726.0032,141.7519 C726.7542,143.2569 727.8822,144.1959 729.9512,144.1959 L734.2762,144.1959 C745.1822,144.1959 751.9512,138.5549 751.9512,130.4699 C751.9512,122.7599 746.1222,119.5639 733.9002,113.9229" id="Fill-13"></path>
            <path d="M886.2059,132.5382 C886.2059,134.9822 886.3939,135.5472 888.0869,137.0512 L897.2999,145.7012 L897.2999,146.0762 L844.6499,146.0762 L844.6499,145.7012 L853.4879,137.0512 C855.1809,135.5472 855.3679,134.7942 855.3679,132.7262 C855.3679,129.9062 855.9329,104.5212 855.9329,95.4952 C855.9329,78.3842 853.1119,67.1022 841.6429,67.1022 C835.2489,67.1022 830.9239,70.6752 827.5399,75.5642 L827.5399,132.5382 C827.5399,134.9822 827.7269,135.5472 829.4199,137.0512 L838.6339,145.7012 L838.6339,146.0762 L785.9839,146.0762 L785.9839,145.7012 L795.1969,137.0512 C796.7019,135.5472 796.8899,134.9822 796.8899,132.5382 L796.8899,27.6152 C796.8899,25.1712 796.7019,24.4182 795.1969,22.9142 L785.9839,14.2642 L785.9839,13.8892 L827.5399,9.0002 L827.5399,73.4952 C832.2399,59.9572 842.0179,51.4952 857.4359,51.4952 C876.4289,51.4952 886.7699,65.2222 886.7699,91.1712 C886.7699,102.8282 886.3939,117.6832 886.2059,132.5382" id="Fill-15"></path>
            <path d="M593.8445,103.5899 C593.8445,94.5639 600.8025,88.9229 608.8875,88.9229 C617.3495,88.9229 624.1175,94.5639 624.1175,103.5899 C624.1175,112.0509 617.3495,117.5039 608.8875,117.5039 C600.8025,117.5039 593.8445,112.0509 593.8445,103.5899" id="Fill-17"></path>
        </g>
    </g>
</svg>