<svg id="Layer_1" data-name="Layer 1" xmlns="http://www.w3.org/2000/svg" viewBox="0 0 83 15.22"><defs><style>.cls-1{fill:#ec1c24;}.cls-2{fill:#231f20;}</style></defs><title>realtor_logo</title><path class="cls-1" d="M5.92,7.84A1.09,1.09,0,0,1,5,7C4.8,6.67,4.85,6.35,4.48,6.35S3.2,7.47,3,9C3,9.12,3,10.13,3,10.66v1.6A9.23,9.23,0,0,0,3,14a0.92,0.92,0,0,0,.69.85,1.1,1.1,0,0,0,.32.11V15H0V15a1.1,1.1,0,0,0,.32-0.11A0.86,0.86,0,0,0,1,14a9.23,9.23,0,0,0,.05-1.76V6.72A0.81,0.81,0,0,0,.7,6,1.58,1.58,0,0,0,.12,5.82V5.76H2.83a0.09,0.09,0,0,1,.11.11V8.32A4.52,4.52,0,0,1,4.06,6.24,2.21,2.21,0,0,1,5.6,5.55a1.37,1.37,0,0,1,1,.37,1.3,1.3,0,0,1,.32.9,0.88,0.88,0,0,1-1,1h0Zm8.57,1.81H8.79c0,2.55.32,3.83,1,4.58a1.79,1.79,0,0,0,1.6.69c1.76,0,2.66-1.44,3-2.93h0.11A3.5,3.5,0,0,1,11,15.13,4.08,4.08,0,0,1,8,14a5,5,0,0,1-1.17-3.62c0-2.93,1.65-4.84,4-4.84a3.49,3.49,0,0,1,3.83,3.51A1.89,1.89,0,0,0,14.48,9.65ZM11.93,6.08a1.5,1.5,0,0,0-1.22-.48,1.29,1.29,0,0,0-1.12.48c-0.48.53-.74,1.7-0.8,3.41h3.14c0.64,0,.69,0,0.69-1a4,4,0,0,0-.69-2.45h0Zm9,9A2.27,2.27,0,0,1,19.8,15a1.42,1.42,0,0,1-.43-1.38A2.27,2.27,0,0,1,17,15.13a2.2,2.2,0,0,1-2.39-2.29,1.73,1.73,0,0,1,.53-1.38,7.56,7.56,0,0,1,2.5-1.06c1.22-.48,1.81-1.06,1.81-1.7V7c0-1.17-.32-1.38-1.22-1.38a1.22,1.22,0,0,0-1,.32A2,2,0,0,0,17,7.31a0.85,0.85,0,0,1-1,1,0.77,0.77,0,0,1-.85-0.8,1.17,1.17,0,0,1,.37-0.9,4.1,4.1,0,0,1,2.71-1c1.6,0,3.14.59,3.14,2.13,0,0.69-.05,4.15-0.05,5.43,0,1,0,1.28.21,1.49a0.67,0.67,0,0,0,.48.21,1.21,1.21,0,0,0,.59-0.16v0.05a3.76,3.76,0,0,1-1.65.37h0Zm-3-4.74a2.64,2.64,0,0,0-1.06.85,3.3,3.3,0,0,0-.37,1.54c0,1.22.48,1.92,1.33,1.92a1,1,0,0,0,.53-0.11,1.93,1.93,0,0,0,.9-1.65V9.33A3,3,0,0,1,18,10.39Zm4.36,4.52,0.37-.16a0.88,0.88,0,0,0,.64-0.85,8.62,8.62,0,0,0,.11-1.76V2.73c0-.37,0-1.38-0.05-1.76A0.74,0.74,0,0,0,23.05.28,1.58,1.58,0,0,0,22.46.07h2.71c0.11,0,.11,0,0.11.16v12c0,0.59,0,1.28.05,1.76a0.86,0.86,0,0,0,.74.85c0.11,0.05.16,0.05,0.27,0.11V15h-4V14.92h0Z" transform="translate(-0.01 -0.07)"/><path class="cls-2" d="M32.2,13.75A2.66,2.66,0,0,1,30,15.13a2.33,2.33,0,0,1-1.86-.59,2,2,0,0,1-.59-1.6c0-.43.05-6.07,0.11-7.13a10.25,10.25,0,0,1-1.28-.05V5.71c1.33-.32,2.18-1,3.09-3.94h0.05V5.66h2.13V5.76H29.49l-0.11,7.77a1,1,0,0,0,1.12,1.28,1.91,1.91,0,0,0,1.6-1.12Zm3.67,1.38a4.63,4.63,0,0,1-4.42-4.79,4.63,4.63,0,0,1,4.42-4.79,4.64,4.64,0,0,1,4.47,4.79A4.64,4.64,0,0,1,35.87,15.13Zm1.44-8.89a1.71,1.71,0,0,0-1.44-.64,1.81,1.81,0,0,0-1.38.59c-0.64.69-1,2.45-1,4.1a7,7,0,0,0,1,4.1,1.71,1.71,0,0,0,1.44.64,1.77,1.77,0,0,0,1.44-.64,7.32,7.32,0,0,0,1-4.1,7.35,7.35,0,0,0-1.06-4h0Zm8.57,1.6a1.09,1.09,0,0,1-1-.8c-0.16-.37-0.11-0.69-0.48-0.69S43.16,7.47,43,9c0,0.16-.05,1.17-0.05,1.7v1.6A9.23,9.23,0,0,0,43,14a0.92,0.92,0,0,0,.69.85A1.1,1.1,0,0,0,44,15V15H40V15a1.1,1.1,0,0,0,.32-0.11A0.86,0.86,0,0,0,41,14a9.23,9.23,0,0,0,.05-1.76V6.72A0.81,0.81,0,0,0,40.71,6a1.58,1.58,0,0,0-.59-0.21V5.76h2.71a0.09,0.09,0,0,1,.11.11V8.32a4.52,4.52,0,0,1,1.12-2.07,2.21,2.21,0,0,1,1.54-.69,1.37,1.37,0,0,1,1,.37,1.3,1.3,0,0,1,.32.9,1,1,0,0,1-1,1h0Zm1,7.45a1.17,1.17,0,0,1,0-2.34,1.12,1.12,0,0,1,1.17,1.17A1.18,1.18,0,0,1,46.89,15.29ZM53,15.13A4.18,4.18,0,0,1,50.08,14a5,5,0,0,1-1.22-3.72,4.47,4.47,0,0,1,4.2-4.68,3.6,3.6,0,0,1,2.71,1,1.6,1.6,0,0,1,.48,1,0.88,0.88,0,0,1-.9,1,1,1,0,0,1-1.06-1.17C54.12,6.08,53.91,5.66,53,5.66a1.82,1.82,0,0,0-1.28.53A6.63,6.63,0,0,0,51,9.86c0,2.13.27,3.51,0.8,4.31a1.69,1.69,0,0,0,1.44.74c2,0,2.82-1.7,3.14-3h0.11c-0.53,1.81-1.65,3.19-3.46,3.19h0Zm7.77,0a4.63,4.63,0,0,1-4.42-4.79,4.46,4.46,0,1,1,8.89,0A4.67,4.67,0,0,1,60.77,15.13Zm1.44-8.89a1.71,1.71,0,0,0-1.44-.64,1.81,1.81,0,0,0-1.38.59c-0.64.69-1,2.45-1,4.1a7,7,0,0,0,1,4.1,1.71,1.71,0,0,0,1.44.64,1.77,1.77,0,0,0,1.44-.64,7.32,7.32,0,0,0,1-4.1,8.39,8.39,0,0,0-1.06-4h0Zm13.67,8.67a1.77,1.77,0,0,1,.32-0.16,0.87,0.87,0,0,0,.69-0.85A8.62,8.62,0,0,0,77,12.15V8.37a3.25,3.25,0,0,0-.32-1.81A1.35,1.35,0,0,0,75.51,6a2.49,2.49,0,0,0-2.23,2.5c0,0.32-.05.69-0.05,1.12v2.5a9.39,9.39,0,0,0,.05,1.76,0.87,0.87,0,0,0,.69.85,1.1,1.1,0,0,0,.32.11v0.05h-4V14.81a1.1,1.1,0,0,0,.32-0.11,0.87,0.87,0,0,0,.69-0.85,8.62,8.62,0,0,0,.11-1.76V8.32A2.74,2.74,0,0,0,71,6.51a1.35,1.35,0,0,0-1.17-.59c-1.06,0-2.08.9-2.23,2.55-0.05.53-.05,1.17-0.05,1.81V12a9.23,9.23,0,0,0,.05,1.76,0.91,0.91,0,0,0,.74.85l0.32,0.11v0.05h-4V14.76a1.1,1.1,0,0,0,.32-0.11,0.82,0.82,0,0,0,.69-0.85A8.89,8.89,0,0,0,65.72,12V8.32c0-.37,0-1.44-0.05-1.76a0.81,0.81,0,0,0-.37-0.69,1.58,1.58,0,0,0-.59-0.21V5.6h2.71c0.11,0,.11,0,0.11.11L67.48,7.84A3.36,3.36,0,0,1,68.7,6a3.31,3.31,0,0,1,1.81-.59,2.46,2.46,0,0,1,2,.74,2.78,2.78,0,0,1,.59,1.76A3.19,3.19,0,0,1,74.39,6a3.15,3.15,0,0,1,1.76-.59,2.38,2.38,0,0,1,2.07.8,3.06,3.06,0,0,1,.53,2V12a9.16,9.16,0,0,0,.11,1.76,0.87,0.87,0,0,0,.69.85l0.32,0.11v0.05h-4v0.11h0Zm5.53-7.45a2.67,2.67,0,0,1-.64-0.11A1.86,1.86,0,0,1,80.3,7,1.26,1.26,0,0,1,80,6.56a1.25,1.25,0,0,1-.11-0.64A2.67,2.67,0,0,1,80,5.29a4.68,4.68,0,0,1,.32-0.53,1.1,1.1,0,0,1,.53-0.32,1.35,1.35,0,0,1,.64-0.11,2.67,2.67,0,0,1,.64.11,1.86,1.86,0,0,1,.48.32,1.26,1.26,0,0,1,.32.48,1.25,1.25,0,0,1,.11.64,2.67,2.67,0,0,1-.11.64,4.68,4.68,0,0,1-.32.53,0.9,0.9,0,0,1-.53.32A1.35,1.35,0,0,1,81.42,7.47Zm0-.16A2.26,2.26,0,0,0,82,7.2a0.83,0.83,0,0,0,.43-0.32,3,3,0,0,0,.32-0.43,1.89,1.89,0,0,0,.11-0.53,1.57,1.57,0,0,0-.11-0.53A0.83,0.83,0,0,0,82.43,5,3,3,0,0,0,82,4.65a1.89,1.89,0,0,0-.53-0.11,2.26,2.26,0,0,0-.59.11,0.83,0.83,0,0,0-.43.32,3,3,0,0,0-.32.43,1.89,1.89,0,0,0-.11.53,1.57,1.57,0,0,0,.11.53,0.83,0.83,0,0,0,.32.43,3,3,0,0,0,.43.32A1.89,1.89,0,0,0,81.42,7.31ZM80.78,5h0.74a0.79,0.79,0,0,1,.53.16,0.48,0.48,0,0,1,.16.37,0.45,0.45,0,0,1-.11.32,0.53,0.53,0,0,1-.27.21l0.43,0.59H81.84l-0.37-.53H81.2V6.62H80.83L80.78,5h0Zm0.74,0.8a0.26,0.26,0,0,0,.21-0.05,0.2,0.2,0,0,0,.05-0.16c0-.11,0-0.16-0.05-0.16a0.26,0.26,0,0,0-.21-0.05H81.15V5.82l0.37-.05h0Z" transform="translate(-0.01 -0.07)"/></svg>